<svg id="visual" viewBox="0 0 960 300" width="960" height="300" xmlns="http://www.w3.org/2000/svg" xmlns:xlink="http://www.w3.org/1999/xlink" version="1.1"><rect x="0" y="0" width="960" height="300" fill="#596b7a"></rect><path d="M0 168L12.3 173.8C24.7 179.7 49.3 191.3 74 197.8C98.7 204.3 123.3 205.7 148 197.7C172.7 189.7 197.3 172.3 221.8 168C246.3 163.7 270.7 172.3 295.2 177.3C319.7 182.3 344.3 183.7 369 190.2C393.7 196.7 418.3 208.3 443 214.3C467.7 220.3 492.3 220.7 517 222C541.7 223.3 566.3 225.7 591 218.8C615.7 212 640.3 196 664.8 184.2C689.3 172.3 713.7 164.7 738.2 169.7C762.7 174.7 787.3 192.3 812 201.8C836.7 211.3 861.3 212.7 886 204.8C910.7 197 935.3 180 947.7 171.5L960 163L960 0L947.7 0C935.3 0 910.7 0 886 0C861.3 0 836.7 0 812 0C787.3 0 762.7 0 738.2 0C713.7 0 689.3 0 664.8 0C640.3 0 615.7 0 591 0C566.3 0 541.7 0 517 0C492.3 0 467.7 0 443 0C418.3 0 393.7 0 369 0C344.3 0 319.7 0 295.2 0C270.7 0 246.3 0 221.8 0C197.3 0 172.7 0 148 0C123.3 0 98.7 0 74 0C49.3 0 24.7 0 12.3 0L0 0Z" fill="#4e5868"></path><path d="M0 151L12.3 152.7C24.7 154.3 49.3 157.7 74 164C98.7 170.3 123.3 179.7 148 184.7C172.7 189.7 197.3 190.3 221.8 187.5C246.3 184.7 270.7 178.3 295.2 171.7C319.7 165 344.3 158 369 156.3C393.7 154.7 418.3 158.3 443 163.3C467.7 168.3 492.3 174.7 517 173.3C541.7 172 566.3 163 591 160.8C615.7 158.7 640.3 163.3 664.8 170.3C689.3 177.3 713.7 186.7 738.2 188.2C762.7 189.7 787.3 183.3 812 183.8C836.7 184.3 861.3 191.7 886 190.3C910.7 189 935.3 179 947.7 174L960 169L960 0L947.7 0C935.3 0 910.7 0 886 0C861.3 0 836.7 0 812 0C787.3 0 762.7 0 738.2 0C713.7 0 689.3 0 664.8 0C640.3 0 615.7 0 591 0C566.3 0 541.7 0 517 0C492.3 0 467.7 0 443 0C418.3 0 393.7 0 369 0C344.3 0 319.7 0 295.2 0C270.7 0 246.3 0 221.8 0C197.3 0 172.7 0 148 0C123.3 0 98.7 0 74 0C49.3 0 24.7 0 12.3 0L0 0Z" fill="#434d5d"></path><path d="M0 170L12.3 166.7C24.7 163.3 49.3 156.7 74 154.7C98.7 152.7 123.3 155.3 148 150.5C172.7 145.7 197.3 133.3 221.8 133C246.3 132.7 270.7 144.3 295.2 146.5C319.7 148.7 344.3 141.3 369 139C393.7 136.7 418.3 139.3 443 143.5C467.7 147.7 492.3 153.3 517 149.8C541.7 146.3 566.3 133.7 591 127.8C615.7 122 640.3 123 664.8 122.8C689.3 122.7 713.7 121.3 738.2 120.7C762.7 120 787.3 120 812 121.2C836.7 122.3 861.3 124.7 886 134.7C910.7 144.7 935.3 162.3 947.7 171.2L960 180L960 0L947.7 0C935.3 0 910.7 0 886 0C861.3 0 836.7 0 812 0C787.3 0 762.7 0 738.2 0C713.7 0 689.3 0 664.8 0C640.3 0 615.7 0 591 0C566.3 0 541.7 0 517 0C492.3 0 467.7 0 443 0C418.3 0 393.7 0 369 0C344.3 0 319.7 0 295.2 0C270.7 0 246.3 0 221.8 0C197.3 0 172.7 0 148 0C123.3 0 98.7 0 74 0C49.3 0 24.7 0 12.3 0L0 0Z" fill="#384251"></path><path d="M0 115L12.3 116.8C24.7 118.7 49.3 122.3 74 121C98.7 119.7 123.3 113.3 148 108.5C172.7 103.7 197.3 100.3 221.8 101.2C246.3 102 270.7 107 295.2 112C319.7 117 344.3 122 369 128.5C393.7 135 418.3 143 443 146.5C467.7 150 492.3 149 517 149.3C541.7 149.7 566.3 151.3 591 145.2C615.7 139 640.3 125 664.8 123.2C689.3 121.3 713.7 131.7 738.2 138C762.7 144.3 787.3 146.7 812 147.5C836.7 148.3 861.3 147.7 886 142.7C910.7 137.7 935.3 128.3 947.7 123.7L960 119L960 0L947.7 0C935.3 0 910.7 0 886 0C861.3 0 836.7 0 812 0C787.3 0 762.7 0 738.2 0C713.7 0 689.3 0 664.8 0C640.3 0 615.7 0 591 0C566.3 0 541.7 0 517 0C492.3 0 467.7 0 443 0C418.3 0 393.7 0 369 0C344.3 0 319.7 0 295.2 0C270.7 0 246.3 0 221.8 0C197.3 0 172.7 0 148 0C123.3 0 98.7 0 74 0C49.3 0 24.7 0 12.3 0L0 0Z" fill="#2e3847"></path><path d="M0 102L12.3 101C24.7 100 49.3 98 74 99C98.7 100 123.3 104 148 104.8C172.7 105.7 197.3 103.3 221.8 105C246.3 106.7 270.7 112.3 295.2 113C319.7 113.7 344.3 109.3 369 104.7C393.7 100 418.3 95 443 93.5C467.7 92 492.3 94 517 93.2C541.7 92.3 566.3 88.7 591 91.7C615.7 94.7 640.3 104.3 664.8 111.7C689.3 119 713.7 124 738.2 126.5C762.7 129 787.3 129 812 125C836.7 121 861.3 113 886 107.2C910.7 101.3 935.3 97.7 947.7 95.8L960 94L960 0L947.7 0C935.3 0 910.7 0 886 0C861.3 0 836.7 0 812 0C787.3 0 762.7 0 738.2 0C713.7 0 689.3 0 664.8 0C640.3 0 615.7 0 591 0C566.3 0 541.7 0 517 0C492.3 0 467.7 0 443 0C418.3 0 393.7 0 369 0C344.3 0 319.7 0 295.2 0C270.7 0 246.3 0 221.8 0C197.3 0 172.7 0 148 0C123.3 0 98.7 0 74 0C49.3 0 24.7 0 12.3 0L0 0Z" fill="#242e3c"></path><path d="M0 89L12.3 89.7C24.7 90.3 49.3 91.7 74 92.5C98.7 93.3 123.3 93.7 148 91.2C172.7 88.7 197.3 83.3 221.8 80.7C246.3 78 270.7 78 295.2 76C319.7 74 344.3 70 369 71.7C393.7 73.3 418.3 80.7 443 82.7C467.7 84.7 492.3 81.3 517 81.7C541.7 82 566.3 86 591 88.2C615.7 90.3 640.3 90.7 664.8 88.2C689.3 85.7 713.7 80.3 738.2 75.8C762.7 71.3 787.3 67.7 812 71C836.7 74.3 861.3 84.7 886 92C910.7 99.3 935.3 103.7 947.7 105.8L960 108L960 0L947.7 0C935.3 0 910.7 0 886 0C861.3 0 836.7 0 812 0C787.3 0 762.7 0 738.2 0C713.7 0 689.3 0 664.8 0C640.3 0 615.7 0 591 0C566.3 0 541.7 0 517 0C492.3 0 467.7 0 443 0C418.3 0 393.7 0 369 0C344.3 0 319.7 0 295.2 0C270.7 0 246.3 0 221.8 0C197.3 0 172.7 0 148 0C123.3 0 98.7 0 74 0C49.3 0 24.7 0 12.3 0L0 0Z" fill="#1a2432"></path><path d="M0 78L12.3 74.2C24.7 70.3 49.3 62.7 74 63.8C98.7 65 123.3 75 148 74C172.7 73 197.3 61 221.8 60.5C246.3 60 270.7 71 295.2 76C319.7 81 344.3 80 369 80.5C393.7 81 418.3 83 443 79C467.7 75 492.3 65 517 64.2C541.7 63.3 566.3 71.7 591 73.5C615.7 75.3 640.3 70.7 664.8 69.3C689.3 68 713.7 70 738.2 66.8C762.7 63.7 787.3 55.3 812 55C836.7 54.7 861.3 62.3 886 65C910.7 67.7 935.3 65.3 947.7 64.2L960 63L960 0L947.7 0C935.3 0 910.7 0 886 0C861.3 0 836.7 0 812 0C787.3 0 762.7 0 738.2 0C713.7 0 689.3 0 664.8 0C640.3 0 615.7 0 591 0C566.3 0 541.7 0 517 0C492.3 0 467.7 0 443 0C418.3 0 393.7 0 369 0C344.3 0 319.7 0 295.2 0C270.7 0 246.3 0 221.8 0C197.3 0 172.7 0 148 0C123.3 0 98.7 0 74 0C49.3 0 24.7 0 12.3 0L0 0Z" fill="#101b28"></path><path d="M0 41L12.3 44C24.7 47 49.3 53 74 53.2C98.7 53.3 123.3 47.7 148 47.2C172.7 46.7 197.3 51.3 221.8 51.2C246.3 51 270.7 46 295.2 42.2C319.7 38.3 344.3 35.7 369 36.7C393.7 37.7 418.3 42.3 443 42C467.7 41.7 492.3 36.3 517 35.8C541.7 35.3 566.3 39.7 591 43.7C615.7 47.7 640.3 51.3 664.8 54.5C689.3 57.7 713.7 60.3 738.2 60.8C762.7 61.3 787.3 59.7 812 59.2C836.7 58.7 861.3 59.3 886 57.2C910.7 55 935.3 50 947.7 47.5L960 45L960 0L947.7 0C935.3 0 910.7 0 886 0C861.3 0 836.7 0 812 0C787.3 0 762.7 0 738.2 0C713.7 0 689.3 0 664.8 0C640.3 0 615.7 0 591 0C566.3 0 541.7 0 517 0C492.3 0 467.7 0 443 0C418.3 0 393.7 0 369 0C344.3 0 319.7 0 295.2 0C270.7 0 246.3 0 221.8 0C197.3 0 172.7 0 148 0C123.3 0 98.7 0 74 0C49.3 0 24.7 0 12.3 0L0 0Z" fill="#04111e"></path><path d="M0 37L12.3 36C24.7 35 49.3 33 74 31.5C98.7 30 123.3 29 148 29.8C172.7 30.7 197.3 33.3 221.8 34.7C246.3 36 270.7 36 295.2 33.3C319.7 30.7 344.3 25.3 369 23.2C393.7 21 418.3 22 443 22.3C467.7 22.7 492.3 22.3 517 25C541.7 27.7 566.3 33.3 591 32.7C615.7 32 640.3 25 664.8 24.3C689.3 23.7 713.7 29.3 738.2 32.5C762.7 35.7 787.3 36.3 812 34.8C836.7 33.3 861.3 29.7 886 29C910.7 28.3 935.3 30.7 947.7 31.8L960 33L960 0L947.7 0C935.3 0 910.7 0 886 0C861.3 0 836.7 0 812 0C787.3 0 762.7 0 738.2 0C713.7 0 689.3 0 664.8 0C640.3 0 615.7 0 591 0C566.3 0 541.7 0 517 0C492.3 0 467.7 0 443 0C418.3 0 393.7 0 369 0C344.3 0 319.7 0 295.2 0C270.7 0 246.3 0 221.8 0C197.3 0 172.7 0 148 0C123.3 0 98.7 0 74 0C49.3 0 24.7 0 12.3 0L0 0Z" fill="#000000"></path></svg>