<svg id="visual" viewBox="0 0 960 300" width="960" height="300" xmlns="http://www.w3.org/2000/svg" xmlns:xlink="http://www.w3.org/1999/xlink" version="1.1"><rect x="0" y="0" width="960" height="300" fill="#0d131c"></rect><path d="M0 76L240 101L480 113L720 90L960 87L960 0L720 0L480 0L240 0L0 0Z" fill="#213f6d"></path><path d="M0 62L240 98L480 85L720 53L960 74L960 0L720 0L480 0L240 0L0 0Z" fill="#12315c"></path><path d="M0 72L240 53L480 69L720 73L960 58L960 0L720 0L480 0L240 0L0 0Z" fill="#00234c"></path><path d="M0 57L240 46L480 40L720 54L960 57L960 0L720 0L480 0L240 0L0 0Z" fill="#00153c"></path><path d="M0 18L240 25L480 28L720 14L960 25L960 0L720 0L480 0L240 0L0 0Z" fill="#000000"></path></svg>