<svg id="visual" viewBox="0 0 960 300" width="960" height="300" xmlns="http://www.w3.org/2000/svg" xmlns:xlink="http://www.w3.org/1999/xlink" version="1.1"><rect x="0" y="0" width="960" height="300" fill="#001122"></rect><path d="M0 226L12.3 220C24.7 214 49.3 202 74 197.8C98.7 193.7 123.3 197.3 148 193.8C172.7 190.3 197.3 179.7 221.8 176.8C246.3 174 270.7 179 295.2 181.5C319.7 184 344.3 184 369 189C393.7 194 418.3 204 443 210.8C467.7 217.7 492.3 221.3 517 214.7C541.7 208 566.3 191 591 189.8C615.7 188.7 640.3 203.3 664.8 203.2C689.3 203 713.7 188 738.2 179.8C762.7 171.7 787.3 170.3 812 168.8C836.7 167.3 861.3 165.7 886 172C910.7 178.3 935.3 192.7 947.7 199.8L960 207L960 0L947.7 0C935.3 0 910.7 0 886 0C861.3 0 836.7 0 812 0C787.3 0 762.7 0 738.2 0C713.7 0 689.3 0 664.8 0C640.3 0 615.7 0 591 0C566.3 0 541.7 0 517 0C492.3 0 467.7 0 443 0C418.3 0 393.7 0 369 0C344.3 0 319.7 0 295.2 0C270.7 0 246.3 0 221.8 0C197.3 0 172.7 0 148 0C123.3 0 98.7 0 74 0C49.3 0 24.7 0 12.3 0L0 0Z" fill="#6e6a8e"></path><path d="M0 157L12.3 160C24.7 163 49.3 169 74 167.2C98.7 165.3 123.3 155.7 148 156.8C172.7 158 197.3 170 221.8 178.5C246.3 187 270.7 192 295.2 190.8C319.7 189.7 344.3 182.3 369 180.3C393.7 178.3 418.3 181.7 443 177.3C467.7 173 492.3 161 517 152.5C541.7 144 566.3 139 591 137.5C615.7 136 640.3 138 664.8 144.3C689.3 150.7 713.7 161.3 738.2 167.5C762.7 173.7 787.3 175.3 812 180.3C836.7 185.3 861.3 193.7 886 190C910.7 186.3 935.3 170.7 947.7 162.8L960 155L960 0L947.7 0C935.3 0 910.7 0 886 0C861.3 0 836.7 0 812 0C787.3 0 762.7 0 738.2 0C713.7 0 689.3 0 664.8 0C640.3 0 615.7 0 591 0C566.3 0 541.7 0 517 0C492.3 0 467.7 0 443 0C418.3 0 393.7 0 369 0C344.3 0 319.7 0 295.2 0C270.7 0 246.3 0 221.8 0C197.3 0 172.7 0 148 0C123.3 0 98.7 0 74 0C49.3 0 24.7 0 12.3 0L0 0Z" fill="#5e5d7d"></path><path d="M0 152L12.3 153C24.7 154 49.3 156 74 152.7C98.7 149.3 123.3 140.7 148 137C172.7 133.3 197.3 134.7 221.8 136.3C246.3 138 270.7 140 295.2 146.2C319.7 152.3 344.3 162.7 369 161.2C393.7 159.7 418.3 146.3 443 141.2C467.7 136 492.3 139 517 147C541.7 155 566.3 168 591 166.7C615.7 165.3 640.3 149.7 664.8 146.7C689.3 143.7 713.7 153.3 738.2 153.8C762.7 154.3 787.3 145.7 812 144C836.7 142.3 861.3 147.7 886 153.2C910.7 158.7 935.3 164.3 947.7 167.2L960 170L960 0L947.7 0C935.3 0 910.7 0 886 0C861.3 0 836.7 0 812 0C787.3 0 762.7 0 738.2 0C713.7 0 689.3 0 664.8 0C640.3 0 615.7 0 591 0C566.3 0 541.7 0 517 0C492.3 0 467.7 0 443 0C418.3 0 393.7 0 369 0C344.3 0 319.7 0 295.2 0C270.7 0 246.3 0 221.8 0C197.3 0 172.7 0 148 0C123.3 0 98.7 0 74 0C49.3 0 24.7 0 12.3 0L0 0Z" fill="#4f516c"></path><path d="M0 149L12.3 143.3C24.7 137.7 49.3 126.3 74 122.5C98.7 118.7 123.3 122.3 148 120.3C172.7 118.3 197.3 110.7 221.8 113.7C246.3 116.7 270.7 130.3 295.2 135.2C319.7 140 344.3 136 369 136.8C393.7 137.7 418.3 143.3 443 142.3C467.7 141.3 492.3 133.7 517 130.8C541.7 128 566.3 130 591 128.5C615.7 127 640.3 122 664.8 125.5C689.3 129 713.7 141 738.2 145.5C762.7 150 787.3 147 812 144.2C836.7 141.3 861.3 138.7 886 131C910.7 123.3 935.3 110.7 947.7 104.3L960 98L960 0L947.7 0C935.3 0 910.7 0 886 0C861.3 0 836.7 0 812 0C787.3 0 762.7 0 738.2 0C713.7 0 689.3 0 664.8 0C640.3 0 615.7 0 591 0C566.3 0 541.7 0 517 0C492.3 0 467.7 0 443 0C418.3 0 393.7 0 369 0C344.3 0 319.7 0 295.2 0C270.7 0 246.3 0 221.8 0C197.3 0 172.7 0 148 0C123.3 0 98.7 0 74 0C49.3 0 24.7 0 12.3 0L0 0Z" fill="#40445c"></path><path d="M0 134L12.3 125.3C24.7 116.7 49.3 99.3 74 92.5C98.7 85.7 123.3 89.3 148 95C172.7 100.7 197.3 108.3 221.8 114.5C246.3 120.7 270.7 125.3 295.2 121.7C319.7 118 344.3 106 369 101.5C393.7 97 418.3 100 443 102.7C467.7 105.3 492.3 107.7 517 107C541.7 106.3 566.3 102.7 591 102.8C615.7 103 640.3 107 664.8 105.5C689.3 104 713.7 97 738.2 92C762.7 87 787.3 84 812 89.8C836.7 95.7 861.3 110.3 886 118.5C910.7 126.7 935.3 128.3 947.7 129.2L960 130L960 0L947.7 0C935.3 0 910.7 0 886 0C861.3 0 836.7 0 812 0C787.3 0 762.7 0 738.2 0C713.7 0 689.3 0 664.8 0C640.3 0 615.7 0 591 0C566.3 0 541.7 0 517 0C492.3 0 467.7 0 443 0C418.3 0 393.7 0 369 0C344.3 0 319.7 0 295.2 0C270.7 0 246.3 0 221.8 0C197.3 0 172.7 0 148 0C123.3 0 98.7 0 74 0C49.3 0 24.7 0 12.3 0L0 0Z" fill="#33384c"></path><path d="M0 73L12.3 75.3C24.7 77.7 49.3 82.3 74 86C98.7 89.7 123.3 92.3 148 91.7C172.7 91 197.3 87 221.8 85.3C246.3 83.7 270.7 84.3 295.2 88.7C319.7 93 344.3 101 369 100.8C393.7 100.7 418.3 92.3 443 85.5C467.7 78.7 492.3 73.3 517 75C541.7 76.7 566.3 85.3 591 88.7C615.7 92 640.3 90 664.8 92.3C689.3 94.7 713.7 101.3 738.2 100.7C762.7 100 787.3 92 812 92.2C836.7 92.3 861.3 100.7 886 98.3C910.7 96 935.3 83 947.7 76.5L960 70L960 0L947.7 0C935.3 0 910.7 0 886 0C861.3 0 836.7 0 812 0C787.3 0 762.7 0 738.2 0C713.7 0 689.3 0 664.8 0C640.3 0 615.7 0 591 0C566.3 0 541.7 0 517 0C492.3 0 467.7 0 443 0C418.3 0 393.7 0 369 0C344.3 0 319.7 0 295.2 0C270.7 0 246.3 0 221.8 0C197.3 0 172.7 0 148 0C123.3 0 98.7 0 74 0C49.3 0 24.7 0 12.3 0L0 0Z" fill="#272c3c"></path><path d="M0 49L12.3 51.3C24.7 53.7 49.3 58.3 74 63.3C98.7 68.3 123.3 73.7 148 75.7C172.7 77.7 197.3 76.3 221.8 75.5C246.3 74.7 270.7 74.3 295.2 73.7C319.7 73 344.3 72 369 71.3C393.7 70.7 418.3 70.3 443 66.2C467.7 62 492.3 54 517 51.8C541.7 49.7 566.3 53.3 591 60C615.7 66.7 640.3 76.3 664.8 77.2C689.3 78 713.7 70 738.2 65.2C762.7 60.3 787.3 58.7 812 56.3C836.7 54 861.3 51 886 53.7C910.7 56.3 935.3 64.7 947.7 68.8L960 73L960 0L947.7 0C935.3 0 910.7 0 886 0C861.3 0 836.7 0 812 0C787.3 0 762.7 0 738.2 0C713.7 0 689.3 0 664.8 0C640.3 0 615.7 0 591 0C566.3 0 541.7 0 517 0C492.3 0 467.7 0 443 0C418.3 0 393.7 0 369 0C344.3 0 319.7 0 295.2 0C270.7 0 246.3 0 221.8 0C197.3 0 172.7 0 148 0C123.3 0 98.7 0 74 0C49.3 0 24.7 0 12.3 0L0 0Z" fill="#1b212d"></path><path d="M0 59L12.3 58.2C24.7 57.3 49.3 55.7 74 56.2C98.7 56.7 123.3 59.3 148 59.3C172.7 59.3 197.3 56.7 221.8 53.3C246.3 50 270.7 46 295.2 45C319.7 44 344.3 46 369 46.2C393.7 46.3 418.3 44.7 443 45C467.7 45.3 492.3 47.7 517 50.5C541.7 53.3 566.3 56.7 591 57.7C615.7 58.7 640.3 57.3 664.8 57.5C689.3 57.7 713.7 59.3 738.2 55.7C762.7 52 787.3 43 812 38.5C836.7 34 861.3 34 886 36.5C910.7 39 935.3 44 947.7 46.5L960 49L960 0L947.7 0C935.3 0 910.7 0 886 0C861.3 0 836.7 0 812 0C787.3 0 762.7 0 738.2 0C713.7 0 689.3 0 664.8 0C640.3 0 615.7 0 591 0C566.3 0 541.7 0 517 0C492.3 0 467.7 0 443 0C418.3 0 393.7 0 369 0C344.3 0 319.7 0 295.2 0C270.7 0 246.3 0 221.8 0C197.3 0 172.7 0 148 0C123.3 0 98.7 0 74 0C49.3 0 24.7 0 12.3 0L0 0Z" fill="#11161f"></path><path d="M0 34L12.3 32.2C24.7 30.3 49.3 26.7 74 25.3C98.7 24 123.3 25 148 26.5C172.7 28 197.3 30 221.8 29.3C246.3 28.7 270.7 25.3 295.2 25.5C319.7 25.7 344.3 29.3 369 28.8C393.7 28.3 418.3 23.7 443 23.8C467.7 24 492.3 29 517 28C541.7 27 566.3 20 591 19.3C615.7 18.7 640.3 24.3 664.8 25.5C689.3 26.7 713.7 23.3 738.2 22C762.7 20.7 787.3 21.3 812 24C836.7 26.7 861.3 31.3 886 32C910.7 32.7 935.3 29.3 947.7 27.7L960 26L960 0L947.7 0C935.3 0 910.7 0 886 0C861.3 0 836.7 0 812 0C787.3 0 762.7 0 738.2 0C713.7 0 689.3 0 664.8 0C640.3 0 615.7 0 591 0C566.3 0 541.7 0 517 0C492.3 0 467.7 0 443 0C418.3 0 393.7 0 369 0C344.3 0 319.7 0 295.2 0C270.7 0 246.3 0 221.8 0C197.3 0 172.7 0 148 0C123.3 0 98.7 0 74 0C49.3 0 24.7 0 12.3 0L0 0Z" fill="#000610"></path></svg>